<svg xmlns="http://www.w3.org/2000/svg" viewBox="0 0 800 650" role="img" aria-labelledby="title desc">
  <title id="title">Phylia services working together</title><desc id="desc">A central Phylia hub connects a business website, forms and systems, network connectivity, and ongoing support.</desc>
  <defs>
    <linearGradient id="bg" x1="80" y1="40" x2="720" y2="610" gradientUnits="userSpaceOnUse"><stop stop-color="#eff8ff"/><stop offset="1" stop-color="#dbeafe"/></linearGradient>
    <linearGradient id="line" x1="180" y1="130" x2="650" y2="520" gradientUnits="userSpaceOnUse"><stop stop-color="#38bdf8"/><stop offset="1" stop-color="#2563eb"/></linearGradient>
    <linearGradient id="logoTraceFade" x1="15" y1="32" x2="92" y2="24" gradientUnits="userSpaceOnUse"><stop offset="0" stop-color="#18c9bf" stop-opacity=".16"/><stop offset=".42" stop-color="#18c9bf" stop-opacity=".42"/><stop offset="1" stop-color="#2f7df0" stop-opacity=".94"/></linearGradient>
    <linearGradient id="logoTraceLead" x1="38" y1="23" x2="92" y2="24" gradientUnits="userSpaceOnUse"><stop offset="0" stop-color="#18c9bf" stop-opacity="0"/><stop offset=".34" stop-color="#18c9bf" stop-opacity=".74"/><stop offset="1" stop-color="#2f7df0"/></linearGradient>
    <filter id="shadow" x="-20%" y="-20%" width="140%" height="150%"><feDropShadow dx="0" dy="18" stdDeviation="20" flood-color="#0b2341" flood-opacity=".12"/></filter>
  </defs>
  <rect x="20" y="20" width="760" height="610" rx="54" fill="url(#bg)"/><circle cx="400" cy="325" r="210" fill="#fff" opacity=".42"/>
  <path d="M282 210 352 286M518 210 448 286M282 440 352 364M518 440 448 364" fill="none" stroke="url(#line)" stroke-width="8" stroke-linecap="round" opacity=".65"/>
  <g filter="url(#shadow)"><rect x="290" y="238" width="220" height="174" rx="32" fill="#fff"/><g transform="translate(322 270) scale(.9)"><text x="0" y="55" font-family="Avenir Next,Montserrat,Trebuchet MS,Arial,Helvetica,sans-serif" font-size="55" font-weight="800" letter-spacing="-2.2" fill="#071d35">Phylia</text><path d="M15 32C34 18 63 15 92 24" fill="none" stroke="url(#logoTraceFade)" stroke-width="7.5" stroke-linecap="round"/><path d="M37 23C53 17 74 18 92 24" fill="none" stroke="url(#logoTraceLead)" stroke-width="4.6" stroke-linecap="round"/><text x="4" y="79" font-family="Avenir Next,Montserrat,Trebuchet MS,Arial,Helvetica,sans-serif" font-size="14" font-weight="800" letter-spacing="4.3" fill="#0c5b73">CONSULTING</text></g><text x="400" y="386" text-anchor="middle" font-family="Inter,Segoe UI,Arial,sans-serif" font-size="14" font-weight="700" letter-spacing="1.1" fill="#275b8f">ONE CONNECTED PARTNER</text></g>
  <g filter="url(#shadow)"><rect x="74" y="74" width="218" height="146" rx="24" fill="#fff"/><rect x="102" y="100" width="162" height="82" rx="10" fill="#eaf4ff" stroke="#93c5fd" stroke-width="3"/><path d="M102 119h162" stroke="#93c5fd" stroke-width="3"/><circle cx="116" cy="110" r="3" fill="#2563eb"/><circle cx="127" cy="110" r="3" fill="#60a5fa"/><path d="M122 151h50M122 162h32" stroke="#6b8bad" stroke-width="6" stroke-linecap="round"/><rect x="191" y="139" width="49" height="27" rx="6" fill="#2563eb"/><text x="183" y="204" text-anchor="middle" font-family="Inter,Segoe UI,Arial,sans-serif" font-size="17" font-weight="800" fill="#0b2341">Websites</text></g>
  <g filter="url(#shadow)"><rect x="508" y="74" width="218" height="146" rx="24" fill="#fff"/><rect x="540" y="101" width="66" height="75" rx="9" fill="#eff6ff" stroke="#93c5fd" stroke-width="3"/><path d="M552 120h42M552 137h30M552 154h36" stroke="#6b8bad" stroke-width="5" stroke-linecap="round"/><rect x="627" y="101" width="67" height="75" rx="9" fill="#e0f2fe" stroke="#60a5fa" stroke-width="3"/><path d="m641 155 12-14 11 7 16-27" fill="none" stroke="#2563eb" stroke-width="5" stroke-linecap="round" stroke-linejoin="round"/><path d="M607 138h17" stroke="#38bdf8" stroke-width="5" stroke-linecap="round"/><text x="617" y="204" text-anchor="middle" font-family="Inter,Segoe UI,Arial,sans-serif" font-size="17" font-weight="800" fill="#0b2341">Forms &amp; systems</text></g>
  <g filter="url(#shadow)"><rect x="74" y="430" width="218" height="146" rx="24" fill="#fff"/><rect x="108" y="477" width="148" height="50" rx="10" fill="#eaf4ff" stroke="#93c5fd" stroke-width="3"/><circle cx="132" cy="502" r="7" fill="#2563eb"/><circle cx="154" cy="502" r="7" fill="#38bdf8"/><path d="M178 502h54" stroke="#6b8bad" stroke-width="6" stroke-linecap="round"/><path d="M157 469c14-13 38-13 52 0M168 458c8-7 21-7 29 0" fill="none" stroke="#2563eb" stroke-width="5" stroke-linecap="round"/><text x="183" y="552" text-anchor="middle" font-family="Inter,Segoe UI,Arial,sans-serif" font-size="17" font-weight="800" fill="#0b2341">Connectivity</text></g>
  <g filter="url(#shadow)"><rect x="508" y="430" width="218" height="146" rx="24" fill="#fff"/><path d="M617 464 665 482v31c0 26-19 42-48 51-29-9-48-25-48-51v-31l48-18Z" fill="#eaf4ff" stroke="#60a5fa" stroke-width="4"/><path d="m597 513 14 14 28-33" fill="none" stroke="#2563eb" stroke-width="8" stroke-linecap="round" stroke-linejoin="round"/><text x="617" y="552" text-anchor="middle" font-family="Inter,Segoe UI,Arial,sans-serif" font-size="17" font-weight="800" fill="#0b2341">Ongoing support</text></g>
</svg>