<svg xmlns="http://www.w3.org/2000/svg" viewBox="0 0 1200 800" role="img" aria-labelledby="title desc">
<title id="title">AI admin dashboard illustration</title><desc id="desc">Abstract dashboard showing organized inquiries and follow-ups.</desc>
<defs>
  <linearGradient id="bg" x1="0" y1="0" x2="1" y2="1"><stop stop-color="#0fddcf"/><stop offset=".55" stop-color="#3b82f6"/><stop offset="1" stop-color="#1e2a78"/></linearGradient>
  <linearGradient id="card" x1="0" y1="0" x2="1" y2="1"><stop stop-color="#ffffff" stop-opacity=".96"/><stop offset="1" stop-color="#dffbff" stop-opacity=".86"/></linearGradient>
  <filter id="shadow" x="-20%" y="-20%" width="140%" height="140%"><feDropShadow dx="0" dy="24" stdDeviation="28" flood-color="#072b4f" flood-opacity=".28"/></filter>
</defs>
<rect width="1200" height="800" rx="44" fill="url(#bg)"/>
<circle cx="1040" cy="120" r="190" fill="#ffffff" opacity=".12"/>
<circle cx="160" cy="680" r="240" fill="#35f1df" opacity=".13"/>

<g filter="url(#shadow)">
  <rect x="140" y="120" width="920" height="560" rx="34" fill="#071a2f" opacity=".94"/>
  <rect x="178" y="170" width="844" height="462" rx="24" fill="url(#card)"/>
  <rect x="218" y="215" width="300" height="34" rx="17" fill="#0f7696" opacity=".18"/>
  <rect x="218" y="276" width="455" height="28" rx="14" fill="#0f7696" opacity=".22"/>
  <rect x="218" y="324" width="360" height="20" rx="10" fill="#0f7696" opacity=".15"/>
  <rect x="218" y="386" width="245" height="122" rx="18" fill="#ffffff"/>
  <rect x="494" y="386" width="245" height="122" rx="18" fill="#ffffff"/>
  <rect x="770" y="386" width="210" height="122" rx="18" fill="#ffffff"/>
  <path d="M250 470 C320 420 350 450 405 410" fill="none" stroke="#0fddcf" stroke-width="12" stroke-linecap="round"/>
  <path d="M526 470 C590 398 638 442 704 410" fill="none" stroke="#3b82f6" stroke-width="12" stroke-linecap="round"/>
  <path d="M806 470 C858 432 902 458 952 410" fill="none" stroke="#14b8a6" stroke-width="12" stroke-linecap="round"/>
  <rect x="218" y="550" width="762" height="28" rx="14" fill="#0f7696" opacity=".16"/>
</g>
</svg>