<?xml version="1.0" standalone="no"?>
<!DOCTYPE svg PUBLIC "-//W3C//DTD SVG 20010904//EN"
 "http://www.w3.org/TR/2001/REC-SVG-20010904/DTD/svg10.dtd">
<svg version="1.0" xmlns="http://www.w3.org/2000/svg"
 width="576.000000pt" height="576.000000pt" viewBox="0 0 576.000000 576.000000"
 preserveAspectRatio="xMidYMid meet">
<metadata>
Created by potrace 1.14, written by Peter Selinger 2001-2017
</metadata>
<g transform="translate(0.000000,576.000000) scale(0.100000,-0.100000)"
fill="#000000" stroke="none">
<path d="M200 2880 l0 -2880 2680 0 2680 0 0 2880 0 2880 -2680 0 -2680 0 0
-2880z m4960 1475 l0 -725 -395 0 -395 0 0 310 0 310 -550 0 -550 0 -2 -917
-3 -918 -777 -3 -778 -2 0 385 0 385 385 0 385 0 0 535 0 535 -550 0 -550 0 0
-1545 0 -1545 360 0 360 0 -2 -327 -3 -328 -752 -3 -753 -2 0 2290 0 2290
2285 0 2285 0 0 -725z m0 -2711 l0 -1146 -172 6 c-651 26 -1123 137 -1528 362
-450 248 -770 645 -902 1117 -16 60 -28 110 -26 112 1 2 168 7 369 11 l365 7
59 -89 c106 -159 309 -341 513 -458 102 -59 273 -134 405 -177 65 -22 120 -39
122 -39 3 0 5 324 5 720 l0 720 395 0 395 0 0 -1146z"/>
</g>
</svg>
