<svg xmlns="http://www.w3.org/2000/svg" viewBox="0 0 1200 800" role="img" aria-labelledby="title desc">
<title id="title">Forms and business systems</title><desc id="desc">A structured form flowing into an organized business dashboard</desc>
<defs><linearGradient id="bg" x1="0" y1="0" x2="1" y2="1"><stop stop-color="#dff7f3"/><stop offset=".55" stop-color="#dcecff"/><stop offset="1" stop-color="#ece9ff"/></linearGradient><filter id="s" x="-20%" y="-20%" width="140%" height="140%"><feDropShadow dy="20" stdDeviation="24" flood-color="#17394a" flood-opacity=".16"/></filter></defs>
<rect width="1200" height="800" rx="52" fill="url(#bg)"/><circle cx="1040" cy="105" r="180" fill="#fff" opacity=".5"/><circle cx="120" cy="700" r="210" fill="#fff" opacity=".3"/>
<g filter="url(#s)"><rect x="135" y="155" width="380" height="490" rx="34" fill="#fff"/><rect x="685" y="155" width="380" height="490" rx="34" fill="#fff"/>
<rect x="185" y="215" width="190" height="26" rx="13" fill="#08768b" opacity=".24"/><rect x="185" y="285" width="280" height="52" rx="14" fill="#eef7f4"/><rect x="185" y="365" width="280" height="52" rx="14" fill="#eef7f4"/><rect x="185" y="445" width="180" height="52" rx="14" fill="#eef7f4"/><circle cx="432" cy="471" r="22" fill="#11b9aa"/><path d="m421 471 9 9 17-21" fill="none" stroke="#fff" stroke-width="8" stroke-linecap="round" stroke-linejoin="round"/>
<path d="M540 400h100" stroke="#08768b" stroke-width="18" stroke-linecap="round"/><path d="m614 367 34 33-34 33" fill="none" stroke="#08768b" stroke-width="18" stroke-linecap="round" stroke-linejoin="round"/>
<rect x="735" y="215" width="130" height="100" rx="18" fill="#dff7f3"/><rect x="885" y="215" width="130" height="100" rx="18" fill="#dcecff"/><rect x="735" y="340" width="280" height="190" rx="20" fill="#f5f8fb"/><path d="M775 480 C825 420 860 458 900 400s66 18 85-14" fill="none" stroke="#2563eb" stroke-width="12" stroke-linecap="round"/><rect x="735" y="555" width="210" height="26" rx="13" fill="#0b2638" opacity=".12"/></g>
</svg>