<svg xmlns="http://www.w3.org/2000/svg" viewBox="0 0 1200 800" role="img" aria-labelledby="title desc">
<title id="title">Custom business website illustration</title>
<desc id="desc">A polished browser window with a clear website layout</desc>
<defs>
  <linearGradient id="bg" x1="0" y1="0" x2="1" y2="1"><stop stop-color="#dff7f3"/><stop offset=".55" stop-color="#dcecff"/><stop offset="1" stop-color="#ece9ff"/></linearGradient>
  <linearGradient id="card" x1="0" y1="0" x2="1" y2="1"><stop stop-color="#ffffff"/><stop offset="1" stop-color="#f4fbfc"/></linearGradient>
  <filter id="shadow" x="-20%" y="-20%" width="140%" height="140%"><feDropShadow dx="0" dy="20" stdDeviation="24" flood-color="#17394a" flood-opacity=".16"/></filter>
</defs>
<rect width="1200" height="800" rx="44" fill="url(#bg)"/>
<circle cx="1040" cy="120" r="190" fill="#ffffff" opacity=".5"/>
<circle cx="150" cy="690" r="220" fill="#ffffff" opacity=".3"/>
<g filter="url(#shadow)">
  <rect x="150" y="130" width="900" height="540" rx="36" fill="#0b2638"/>
  <rect x="180" y="180" width="840" height="450" rx="22" fill="url(#card)"/>
  <circle cx="205" cy="155" r="9" fill="#7de0d6"/><circle cx="235" cy="155" r="9" fill="#92baf7"/><circle cx="265" cy="155" r="9" fill="#f2b985"/>
  <rect x="230" y="225" width="250" height="34" rx="17" fill="#08768b" opacity=".22"/>
  <rect x="230" y="285" width="410" height="24" rx="12" fill="#0b2638" opacity=".16"/>
  <rect x="230" y="329" width="330" height="18" rx="9" fill="#0b2638" opacity=".11"/>
  <rect x="230" y="390" width="250" height="160" rx="20" fill="#dff7f3"/>
  <rect x="505" y="390" width="210" height="160" rx="20" fill="#dcecff"/>
  <rect x="740" y="225" width="220" height="325" rx="22" fill="#eef7f4"/>
  <path d="M275 500 C330 430 390 480 440 420" fill="none" stroke="#11b9aa" stroke-width="14" stroke-linecap="round"/>
  <rect x="775" y="275" width="150" height="20" rx="10" fill="#08768b" opacity=".2"/>
  <rect x="775" y="325" width="120" height="18" rx="9" fill="#0b2638" opacity=".12"/>
  <rect x="775" y="365" width="150" height="18" rx="9" fill="#0b2638" opacity=".12"/>
  <rect x="775" y="430" width="120" height="48" rx="14" fill="#08768b"/>
</g>
</svg>