<svg xmlns="http://www.w3.org/2000/svg" viewBox="0 0 1200 800" role="img" aria-labelledby="title desc">
<title id="title">Website care and technical support</title><desc id="desc">A protected website with maintenance and support tools</desc>
<defs><linearGradient id="bg" x1="0" y1="0" x2="1" y2="1"><stop stop-color="#dff7f3"/><stop offset=".55" stop-color="#dcecff"/><stop offset="1" stop-color="#ece9ff"/></linearGradient><filter id="s" x="-20%" y="-20%" width="140%" height="140%"><feDropShadow dy="20" stdDeviation="24" flood-color="#17394a" flood-opacity=".16"/></filter></defs>
<rect width="1200" height="800" rx="52" fill="url(#bg)"/><circle cx="1040" cy="110" r="185" fill="#fff" opacity=".5"/><circle cx="110" cy="700" r="210" fill="#fff" opacity=".3"/>
<g filter="url(#s)"><rect x="145" y="150" width="910" height="500" rx="38" fill="#0b2638"/><rect x="180" y="208" width="840" height="405" rx="22" fill="#fff"/><circle cx="200" cy="179" r="9" fill="#7de0d6"/><circle cx="230" cy="179" r="9" fill="#92baf7"/><circle cx="260" cy="179" r="9" fill="#f2b985"/>
<path d="M515 270 650 225l135 45v112c0 102-64 171-135 200-71-29-135-98-135-200z" fill="#dff7f3"/><path d="m590 380 43 43 80-99" fill="none" stroke="#11b9aa" stroke-width="24" stroke-linecap="round" stroke-linejoin="round"/>
<path d="M300 330a78 78 0 0 0 84 110l68 68 44-44-68-68a78 78 0 0 0-110-84l46 46-42 42-46-46a78 78 0 0 0 24-24z" fill="#2563eb" opacity=".85"/>
<rect x="815" y="300" width="130" height="26" rx="13" fill="#08768b" opacity=".2"/><rect x="815" y="355" width="100" height="20" rx="10" fill="#0b2638" opacity=".12"/><rect x="815" y="400" width="130" height="20" rx="10" fill="#0b2638" opacity=".12"/><circle cx="880" cy="500" r="42" fill="#11b9aa"/><path d="m860 500 16 16 30-38" fill="none" stroke="#fff" stroke-width="12" stroke-linecap="round" stroke-linejoin="round"/></g>
</svg>