<svg xmlns="http://www.w3.org/2000/svg" viewBox="0 0 1200 800" role="img" aria-labelledby="title desc">
<title id="title">Networks, Wi-Fi, and voice</title><desc id="desc">A network switch, wireless access point, and business phone connected as one system</desc>
<defs><linearGradient id="bg" x1="0" y1="0" x2="1" y2="1"><stop stop-color="#dff7f3"/><stop offset=".55" stop-color="#dcecff"/><stop offset="1" stop-color="#ece9ff"/></linearGradient><filter id="s" x="-20%" y="-20%" width="140%" height="140%"><feDropShadow dy="20" stdDeviation="24" flood-color="#17394a" flood-opacity=".16"/></filter></defs>
<rect width="1200" height="800" rx="52" fill="url(#bg)"/><circle cx="1040" cy="110" r="185" fill="#fff" opacity=".5"/><circle cx="110" cy="700" r="210" fill="#fff" opacity=".3"/>
<path d="M325 450H875" stroke="#08768b" stroke-width="14" stroke-linecap="round" opacity=".24"/><circle cx="600" cy="450" r="18" fill="#11b9aa"/>
<g filter="url(#s)"><rect x="125" y="355" width="330" height="210" rx="34" fill="#0b2638"/><rect x="165" y="405" width="250" height="88" rx="14" fill="#fff" opacity=".08"/>
<g fill="#7de0d6"><circle cx="185" cy="530" r="8"/><circle cx="215" cy="530" r="8"/><circle cx="245" cy="530" r="8"/></g><g fill="#dcecff"><rect x="180" y="430" width="44" height="28" rx="5"/><rect x="238" y="430" width="44" height="28" rx="5"/><rect x="296" y="430" width="44" height="28" rx="5"/><rect x="354" y="430" width="44" height="28" rx="5"/></g>
<circle cx="600" cy="300" r="160" fill="#fff"/><circle cx="600" cy="300" r="102" fill="#dff7f3"/><path d="M520 290q80-70 160 0M552 337q48-42 96 0" fill="none" stroke="#08768b" stroke-width="16" stroke-linecap="round"/><circle cx="600" cy="380" r="15" fill="#11b9aa"/>
<rect x="790" y="300" width="285" height="310" rx="42" fill="#fff"/><rect x="838" y="350" width="190" height="52" rx="24" fill="#0b2638"/><rect x="865" y="405" width="136" height="150" rx="24" fill="#0b2638"/><rect x="888" y="430" width="90" height="34" rx="8" fill="#dff7f3"/><g fill="#7de0d6"><circle cx="900" cy="495" r="7"/><circle cx="933" cy="495" r="7"/><circle cx="966" cy="495" r="7"/><circle cx="900" cy="523" r="7"/><circle cx="933" cy="523" r="7"/><circle cx="966" cy="523" r="7"/></g></g>
</svg>