<svg xmlns="http://www.w3.org/2000/svg" viewBox="0 0 1200 800" role="img" aria-labelledby="title desc">
<title id="title">Custom business website</title><desc id="desc">A polished browser window with an organized business website layout</desc>
<defs><linearGradient id="bg" x1="0" y1="0" x2="1" y2="1"><stop stop-color="#eaf4ff"/><stop offset=".55" stop-color="#dcecff"/><stop offset="1" stop-color="#e4edff"/></linearGradient><filter id="s" x="-20%" y="-20%" width="140%" height="140%"><feDropShadow dy="20" stdDeviation="24" flood-color="#274b70" flood-opacity=".16"/></filter></defs>
<rect width="1200" height="800" rx="52" fill="url(#bg)"/><circle cx="1050" cy="110" r="185" fill="#fff" opacity=".5"/><circle cx="110" cy="710" r="210" fill="#fff" opacity=".3"/>
<g filter="url(#s)"><rect x="150" y="130" width="900" height="540" rx="38" fill="#0b2341"/><rect x="184" y="188" width="832" height="444" rx="22" fill="#fff"/>
<circle cx="205" cy="159" r="9" fill="#93c5fd"/><circle cx="235" cy="159" r="9" fill="#92baf7"/><circle cx="265" cy="159" r="9" fill="#bfdbfe"/>
<rect x="230" y="235" width="340" height="34" rx="17" fill="#2563eb" opacity=".22"/><rect x="230" y="296" width="450" height="24" rx="12" fill="#0b2341" opacity=".14"/><rect x="230" y="340" width="350" height="18" rx="9" fill="#0b2341" opacity=".1"/>
<rect x="230" y="408" width="250" height="150" rx="20" fill="#eaf4ff"/><rect x="505" y="408" width="210" height="150" rx="20" fill="#dcecff"/><rect x="740" y="235" width="220" height="323" rx="22" fill="#eff6ff"/>
<path d="M275 515 C330 440 395 500 440 435" fill="none" stroke="#38bdf8" stroke-width="14" stroke-linecap="round"/><rect x="775" y="285" width="150" height="20" rx="10" fill="#2563eb" opacity=".2"/><rect x="775" y="335" width="125" height="18" rx="9" fill="#0b2341" opacity=".12"/><rect x="775" y="378" width="150" height="18" rx="9" fill="#0b2341" opacity=".12"/><rect x="775" y="458" width="125" height="48" rx="14" fill="#2563eb"/></g>
</svg>